<?xml version="1.0" standalone="no"?>
<!DOCTYPE svg PUBLIC "-//W3C//DTD SVG 20010904//EN"
 "http://www.w3.org/TR/2001/REC-SVG-20010904/DTD/svg10.dtd">
<svg version="1.0" xmlns="http://www.w3.org/2000/svg"
 width="2400.000000pt" height="2400.000000pt" viewBox="0 0 2400.000000 2400.000000"
 preserveAspectRatio="xMidYMid meet">
<metadata>
Created by potrace 1.16, written by Peter Selinger 2001-2019
</metadata>
<g transform="translate(0.000000,2400.000000) scale(0.100000,-0.100000)"
fill="#000000" stroke="none">
<path d="M0 12000 l0 -12000 12000 0 12000 0 0 12000 0 12000 -12000 0 -12000
0 0 -12000z m12625 11225 c393 -42 575 -82 880 -193 17 -6 107 -22 200 -37
702 -107 1606 -408 1985 -660 49 -33 121 -69 170 -87 186 -65 418 -198 595
-341 112 -90 306 -293 399 -416 l78 -105 107 -51 c282 -137 533 -334 739 -580
71 -85 82 -93 181 -143 467 -236 812 -612 996 -1084 l38 -96 111 -75 c561
-379 906 -929 967 -1542 l12 -120 117 -120 c376 -389 584 -816 630 -1295 6
-63 17 -126 25 -140 27 -51 113 -491 160 -823 108 -761 120 -1489 40 -2292
-23 -228 -26 -244 -50 -280 -22 -32 -23 -36 -12 -156 12 -148 -2 -379 -34
-534 -40 -200 -137 -450 -240 -625 -40 -68 -43 -78 -35 -111 7 -29 3 -52 -19
-120 -126 -385 -381 -982 -626 -1470 -97 -192 -113 -218 -143 -233 -19 -9 -45
-16 -58 -16 -21 0 -27 -10 -57 -103 -163 -505 -504 -934 -961 -1206 l-88 -53
-27 -71 c-78 -203 -225 -457 -362 -627 -69 -86 -233 -246 -311 -305 -34 -25
-48 -41 -40 -46 7 -3 78 -9 158 -13 1322 -62 3324 -405 4800 -822 243 -69 940
-294 940 -304 0 -3 -339 -124 -752 -269 -414 -145 -757 -267 -762 -272 -5 -4
16 -78 47 -166 308 -880 397 -1135 397 -1142 0 -5 -73 18 -162 51 -1178 427
-3051 803 -4553 913 -879 65 -1980 16 -2955 -130 -515 -78 -925 -164 -1492
-316 -163 -43 -303 -79 -310 -79 -7 0 209 222 480 493 l493 493 -63 17 c-1319
366 -2707 405 -4023 112 -190 -42 -495 -122 -505 -131 -2 -3 216 -225 485
-494 270 -270 485 -490 480 -490 -6 0 -112 27 -235 61 -690 186 -1217 292
-1854 374 -908 116 -1885 149 -2676 90 -1509 -114 -3387 -492 -4548 -916 -159
-58 -165 -59 -151 -21 6 15 28 77 49 137 21 61 120 342 219 625 100 283 178
517 173 520 -4 4 -348 126 -764 271 -417 145 -758 267 -758 270 0 13 733 244
1070 337 1362 377 3169 691 4445 772 99 6 195 15 214 18 l33 7 -78 61 c-157
122 -308 289 -437 484 -74 112 -190 339 -228 444 -20 55 -29 68 -64 87 -22 12
-86 53 -142 91 -405 270 -708 664 -855 1114 l-43 132 -38 5 c-72 10 -81 23
-222 310 -222 453 -444 975 -570 1337 -39 114 -46 143 -41 184 5 44 2 56 -29
107 -139 227 -245 543 -274 811 -13 113 -13 312 -2 413 7 65 6 72 -16 98 -12
16 -23 32 -23 35 0 4 -7 63 -15 132 -103 872 -82 1765 60 2625 44 260 106 559
124 590 12 20 20 65 25 130 33 479 269 959 660 1345 96 95 96 95 96 145 0 185
84 506 191 730 157 331 452 662 793 889 l100 67 33 87 c106 275 259 508 467
712 161 158 335 283 535 382 93 47 112 60 151 112 63 81 240 260 332 335 120
96 257 184 408 260 135 69 138 71 195 148 272 365 584 609 975 766 75 30 172
78 215 107 222 145 653 323 1100 455 455 134 1031 245 1273 245 63 0 95 7 176
36 240 85 524 137 931 168 131 10 808 -3 950 -19z m-2750 -20096 c307 -62 548
-227 664 -455 17 -34 31 -64 31 -68 0 -3 -74 -6 -164 -6 l-165 0 -25 55 c-102
224 -330 377 -582 392 -82 5 -96 3 -145 -19 -63 -29 -111 -73 -142 -132 -19
-36 -22 -56 -22 -168 l0 -128 -162 0 -163 0 -26 40 c-125 188 10 385 324 475
167 48 380 53 577 14z m-3870 -24 c86 -23 191 -77 262 -135 104 -84 193 -245
193 -350 l0 -40 875 0 875 0 0 -65 0 -65 -100 0 -100 0 0 -514 c0 -503 0 -514
21 -539 11 -15 38 -31 60 -37 37 -10 39 -13 39 -51 l0 -39 -292 2 -293 3 -3
36 c-3 35 -2 37 42 48 28 7 53 22 70 42 25 29 26 37 26 141 l0 111 -29 -37
c-60 -75 -154 -134 -258 -161 -91 -24 -244 -20 -325 9 -211 75 -368 291 -385
533 l-6 82 38 -10 c65 -18 223 -16 280 4 95 32 155 103 155 182 0 47 -19 83
-69 128 -66 59 -110 67 -383 67 l-238 0 0 -511 c0 -509 2 -539 34 -562 6 -4
30 -12 54 -18 40 -11 42 -13 42 -50 l0 -39 -290 0 -290 0 0 39 c0 40 11 51 49
51 10 0 30 9 45 21 l26 20 0 525 0 524 -170 0 -170 0 0 -509 0 -509 26 -31
c14 -17 43 -36 65 -42 37 -11 39 -15 39 -51 l0 -38 -290 0 -290 0 0 40 c0 37
2 40 39 50 22 6 49 22 61 37 20 25 20 36 18 357 l-3 331 -79 40 c-71 36 -87
40 -172 43 -86 4 -98 2 -149 -22 -136 -67 -199 -235 -162 -432 20 -103 50
-175 103 -240 l41 -51 -143 -71 c-79 -40 -151 -72 -158 -72 -28 0 -136 134
-181 222 -54 107 -68 175 -63 294 3 81 8 100 41 167 65 131 183 229 342 282
150 51 372 43 523 -18 l62 -25 0 124 0 124 -777 -1 c-699 0 -772 -2 -723 -15
206 -54 363 -217 362 -376 0 -72 -17 -119 -67 -187 -61 -85 -209 -172 -350
-207 l-67 -17 58 -58 c77 -78 155 -119 225 -119 58 0 129 27 166 62 l22 20 25
-28 c14 -16 26 -33 26 -38 0 -4 -30 -38 -67 -75 -78 -76 -149 -115 -246 -131
-139 -25 -236 21 -417 196 -149 143 -217 198 -266 214 -25 9 -34 16 -30 27 4
8 9 26 12 40 4 14 12 22 20 19 54 -21 113 -30 199 -30 88 -1 107 2 157 26 185
86 256 284 168 471 -34 73 -93 132 -168 169 l-66 33 -253 3 -253 3 0 -514 c0
-504 0 -515 21 -540 11 -15 38 -31 60 -37 37 -10 39 -13 39 -50 l0 -40 -290 0
-290 0 0 40 c0 37 2 40 38 50 21 5 49 21 63 36 l24 26 3 514 3 514 -171 0
-170 0 0 -518 0 -519 24 -22 c13 -12 40 -26 60 -32 34 -9 36 -13 36 -49 l0
-40 -290 0 -290 0 0 40 c0 36 2 40 36 49 20 6 47 20 60 32 24 22 24 25 24 236
l0 213 -145 0 -145 0 0 -71 c0 -96 -15 -142 -66 -198 -184 -204 -614 -97 -614
153 0 124 119 216 280 216 l70 0 0 88 0 89 -92 11 c-118 15 -199 53 -262 123
-188 209 15 498 334 476 93 -6 130 -18 200 -59 64 -39 124 -114 139 -174 7
-25 11 -149 11 -298 l0 -256 145 0 145 0 0 255 0 255 -60 0 -60 0 0 65 0 65
2056 0 2057 0 -6 83 c-14 198 -117 377 -217 377 -35 0 -89 -37 -112 -76 -54
-93 -37 -263 35 -341 l20 -23 -191 0 -191 0 -24 33 c-74 98 -94 198 -57 285
38 89 141 165 268 197 72 19 263 13 347 -10z m11312 -2 c19 -9 46 -33 60 -54
21 -33 25 -47 21 -92 -7 -87 -63 -141 -148 -141 -89 0 -150 62 -150 151 0 114
114 185 217 136z m2298 -488 c87 -18 199 -73 248 -120 62 -60 80 -106 75 -194
-6 -130 -74 -237 -207 -326 -110 -72 -277 -125 -398 -125 l-45 0 7 -32 c29
-131 157 -223 327 -235 175 -13 342 58 399 168 18 36 19 61 19 369 l0 330 -50
0 -50 0 0 65 0 65 1505 0 1505 0 0 -65 0 -65 -95 0 -95 0 0 -514 c0 -503 0
-514 21 -539 11 -15 38 -31 60 -37 37 -10 39 -13 39 -50 l0 -40 -290 0 -290 0
0 40 c0 37 2 40 38 50 21 5 49 21 63 36 l24 26 0 291 0 292 -82 41 c-66 32
-229 84 -267 84 -4 0 13 -20 38 -45 125 -125 140 -327 35 -484 -160 -240 -540
-272 -750 -62 -97 98 -142 229 -120 353 32 185 167 325 361 374 52 13 91 15
195 10 202 -9 360 -46 523 -121 l72 -34 0 165 0 164 -695 0 -695 0 0 -505 c0
-578 -4 -552 81 -582 48 -17 50 -19 47 -53 l-3 -35 -290 0 -290 0 -3 36 c-3
34 -1 36 39 48 23 7 52 23 65 36 l24 24 0 516 0 515 -170 0 -170 0 0 -515 0
-516 24 -24 c13 -13 42 -29 65 -36 40 -12 42 -14 39 -48 l-3 -36 -290 0 -290
0 -3 36 c-3 34 -1 36 39 48 23 7 52 23 65 36 22 22 24 33 24 115 l0 90 -38
-37 c-114 -114 -285 -173 -502 -173 -168 0 -272 43 -391 160 -81 80 -126 156
-153 260 -8 30 -15 47 -15 38 -1 -28 -85 -53 -181 -53 -71 0 -95 5 -142 27
l-58 27 16 38 c23 54 26 56 75 34 69 -32 155 -27 250 13 13 6 19 -1 27 -31
l10 -38 1 52 1 52 38 -16 c87 -38 328 -25 438 22 l39 17 -72 13 c-202 36 -343
167 -343 319 0 109 69 200 195 257 109 49 248 62 380 34z m-4465 -100 l0 -65
-100 0 -100 0 0 -513 c0 -575 -4 -542 75 -573 43 -16 45 -19 45 -56 l0 -38
-287 2 -288 3 -3 35 c-3 34 -1 36 47 53 81 28 81 30 81 356 l0 280 -30 21
c-43 31 -138 67 -233 90 -45 11 -85 20 -90 20 -4 0 10 -16 31 -35 22 -19 54
-63 72 -97 29 -54 35 -75 38 -149 5 -102 -12 -165 -65 -247 -92 -138 -249
-211 -433 -199 -254 16 -439 193 -440 423 0 175 92 320 255 400 117 57 226 67
438 39 139 -18 264 -53 374 -105 l83 -39 0 165 0 164 -695 0 -696 0 3 -514 3
-514 24 -26 c14 -15 42 -31 63 -36 36 -10 38 -13 38 -50 l0 -40 -290 0 -290 0
0 40 c0 37 2 40 39 50 22 6 49 22 60 37 21 25 21 36 21 539 l0 514 -170 0
-171 0 3 -514 3 -514 24 -26 c14 -15 42 -31 63 -38 35 -10 38 -14 38 -50 l0
-38 -290 0 -290 0 0 40 c0 37 2 40 39 50 22 6 49 22 60 37 20 25 21 38 21 373
0 387 5 360 -71 360 -21 0 -92 12 -156 26 -65 14 -158 34 -208 44 -116 25
-238 26 -285 2 -72 -36 -100 -122 -64 -199 31 -64 45 -67 279 -73 193 -5 214
-7 262 -29 98 -44 162 -141 163 -245 0 -76 -25 -129 -91 -191 -86 -80 -194
-115 -358 -115 l-105 0 39 -41 c40 -41 124 -89 157 -89 10 0 38 10 63 22 l45
22 27 -26 26 -27 -28 -37 c-32 -41 -101 -93 -148 -111 -46 -17 -155 -15 -218
3 -90 26 -150 68 -271 187 -98 98 -127 120 -210 162 l-96 49 19 37 c10 21 23
40 28 44 6 3 33 -6 61 -20 104 -52 320 -85 432 -65 200 37 298 199 186 307
-48 46 -75 53 -221 53 -210 0 -311 26 -386 101 -165 164 -21 398 263 428 99
11 248 -3 475 -44 108 -20 240 -39 294 -42 l97 -6 0 97 0 96 -730 0 -730 0 0
-507 c0 -388 3 -514 13 -533 8 -16 31 -32 65 -45 51 -19 52 -21 50 -55 l-3
-35 -290 0 -290 0 -3 36 c-3 34 -1 36 39 48 23 7 52 23 65 36 21 21 24 34 24
95 l0 72 -37 -30 c-93 -73 -201 -107 -338 -106 -150 1 -271 49 -372 149 -131
131 -165 322 -86 485 35 73 133 170 211 209 190 96 446 74 587 -50 l35 -31 0
131 0 131 -555 0 -555 0 0 -505 c0 -578 -4 -552 81 -582 48 -17 50 -19 47 -53
l-3 -35 -290 0 -290 0 -3 36 c-3 34 -1 36 39 48 23 7 52 23 65 36 l24 24 0
516 0 515 -100 0 -100 0 0 65 0 65 3175 0 3175 0 0 -65z m3770 0 l0 -65 -372
-1 -373 0 75 -22 c154 -46 271 -132 326 -238 39 -76 39 -171 1 -247 -65 -125
-185 -212 -375 -272 l-84 -26 70 -65 c133 -127 228 -141 324 -51 15 14 29 24
31 21 44 -56 49 -70 33 -94 -25 -38 -123 -112 -195 -148 -54 -26 -76 -31 -136
-31 -63 0 -82 4 -149 37 -65 33 -98 60 -219 180 -105 105 -159 151 -205 176
-45 23 -62 37 -58 48 4 8 9 26 12 40 4 15 12 22 20 19 8 -3 43 -10 78 -17 139
-24 311 33 400 132 176 196 66 469 -219 544 -44 11 -113 15 -272 15 l-213 0 0
-518 0 -519 24 -22 c13 -12 40 -26 60 -32 34 -9 36 -13 36 -49 l0 -40 -290 0
-290 0 0 40 c0 36 2 40 36 49 20 6 47 20 60 32 24 22 24 26 24 205 l0 182 -47
-15 c-66 -20 -193 -13 -255 14 l-46 21 10 44 c6 23 14 46 18 51 3 4 26 -1 51
-12 92 -40 174 -37 242 11 l27 19 0 270 0 269 -357 -1 c-356 0 -358 -1 -298
-18 143 -41 273 -141 323 -248 22 -47 27 -72 27 -133 0 -65 -5 -85 -33 -142
-65 -132 -214 -228 -394 -253 -27 -4 -48 -10 -48 -14 0 -11 113 -117 155 -145
32 -21 51 -26 100 -26 61 0 131 24 168 57 17 16 20 15 49 -14 30 -30 31 -33
15 -56 -22 -34 -132 -115 -194 -144 -76 -35 -166 -48 -235 -34 -88 19 -166 74
-316 222 -102 102 -153 144 -199 168 l-62 31 13 37 c8 21 19 37 24 36 176 -39
330 -16 437 65 94 71 131 153 123 272 -10 130 -91 244 -218 304 -64 30 -68 31
-242 34 l-178 4 0 64 0 64 1590 0 1590 0 0 -65z"/>
<path d="M11695 23000 c-310 -22 -607 -71 -805 -136 -125 -40 -288 -118 -297
-142 -15 -38 125 -483 251 -799 383 -964 818 -1498 1221 -1496 95 0 172 27
268 96 335 239 738 979 1069 1961 l91 269 -21 18 c-30 24 -152 73 -258 104
-170 49 -420 91 -689 115 -163 15 -671 21 -830 10z"/>
<path d="M10150 22755 c-573 -100 -1238 -307 -1643 -512 l-149 -75 24 -25 c37
-41 214 -184 329 -266 551 -396 1445 -835 2273 -1116 210 -72 248 -83 239 -68
-4 7 -35 50 -69 97 -175 240 -390 654 -541 1040 -119 303 -248 714 -274 873
-15 90 3 85 -189 52z"/>
<path d="M13706 22623 c-133 -444 -390 -1086 -568 -1423 -71 -134 -175 -311
-230 -392 l-39 -58 138 49 c949 334 1904 840 2421 1284 l93 80 -33 20 c-118
73 -424 205 -679 292 -278 96 -815 237 -1025 270 l-40 6 -38 -128z"/>
<path d="M8031 22010 c-212 -89 -403 -215 -580 -386 l-116 -112 100 20 c170
32 342 48 530 48 321 0 411 -23 462 -119 37 -70 31 -121 -36 -316 -32 -93 -61
-178 -66 -187 -11 -27 6 -23 120 31 130 61 255 136 363 218 92 69 212 173 212
183 0 3 -66 48 -147 99 -273 171 -505 342 -663 491 -41 38 -77 70 -80 69 -3 0
-47 -18 -99 -39z"/>
<path d="M15680 21994 c-124 -126 -450 -368 -733 -542 l-98 -60 78 -69 c107
-93 187 -154 285 -215 87 -54 314 -168 335 -168 8 0 4 21 -12 63 -13 34 -43
120 -66 191 -34 109 -40 140 -37 192 7 111 71 165 219 184 107 13 396 13 530
0 101 -10 307 -43 345 -56 29 -9 -172 185 -262 252 -107 82 -176 125 -297 185
-81 41 -216 99 -230 99 -2 0 -27 -25 -57 -56z"/>
<path d="M7760 21334 c-438 -50 -768 -161 -1053 -352 -93 -63 -218 -166 -192
-159 42 12 140 27 177 27 74 0 147 -55 167 -125 10 -36 -1 -301 -19 -439 -23
-186 -83 -442 -135 -580 -14 -38 -24 -71 -21 -73 3 -3 26 2 53 11 44 16 52 24
103 107 211 347 509 617 870 791 80 38 156 75 169 81 46 22 203 361 286 615
15 46 24 86 21 89 -7 8 -373 13 -426 7z"/>
<path d="M15733 21333 c-26 -3 -43 -9 -43 -17 0 -50 136 -392 226 -566 l64
-125 63 -24 c97 -37 252 -119 363 -192 271 -179 464 -386 679 -732 8 -13 115
-63 115 -54 0 1 -18 54 -39 119 -93 276 -142 564 -145 859 l-1 137 31 38 c57
73 118 87 256 60 83 -16 81 -12 -46 83 -369 276 -853 426 -1351 419 -71 -1
-149 -3 -172 -5z"/>
<path d="M9235 21191 c-130 -40 -135 -43 -226 -117 -115 -93 -273 -195 -399
-257 l-105 -52 230 0 c143 0 263 -5 317 -13 146 -23 208 -80 208 -191 0 -55
-57 -226 -132 -396 -60 -136 -64 -125 39 -108 348 55 694 217 983 461 98 83
227 209 219 215 -2 1 -83 36 -179 77 -229 96 -517 232 -706 331 -83 43 -153
79 -155 78 -2 0 -44 -13 -94 -28z"/>
<path d="M14325 21109 c-221 -114 -489 -239 -690 -322 -66 -27 -122 -51 -124
-53 -9 -8 153 -165 254 -247 233 -188 488 -319 760 -390 83 -22 275 -58 275
-53 0 1 -24 58 -54 127 -88 205 -139 365 -132 411 13 81 63 136 141 157 76 19
296 34 456 29 l160 -5 -120 62 c-138 72 -254 147 -384 249 -83 66 -103 77
-204 110 -62 20 -116 35 -120 34 -5 0 -102 -50 -218 -109z"/>
<path d="M10470 20511 c-210 -213 -400 -351 -655 -477 -241 -118 -485 -188
-756 -215 l-116 -12 -33 -55 c-63 -106 -211 -291 -318 -400 -180 -183 -355
-310 -596 -432 l-149 -76 -47 -114 c-128 -316 -297 -567 -536 -800 l-107 -104
-9 -96 c-48 -527 -255 -984 -621 -1366 l-77 -81 21 -119 c30 -169 38 -512 14
-679 -21 -150 -72 -350 -123 -482 l-40 -103 35 -6 c20 -4 49 -21 69 -41 l34
-34 0 -162 c1 -476 77 -1031 199 -1453 120 -413 287 -867 402 -1095 39 -79 38
-121 -6 -186 l-35 -52 80 -55 c323 -227 582 -527 741 -861 45 -94 117 -288
134 -360 1 -6 53 -30 115 -54 457 -177 863 -496 1095 -863 l29 -47 76 -6 c334
-26 633 -97 867 -205 47 -22 90 -37 94 -33 21 24 204 608 298 948 305 1115
525 2325 681 3735 122 1107 181 1888 185 2430 1 217 7 386 13 417 16 76 38
122 63 131 19 7 16 11 -27 26 -388 145 -672 522 -691 919 l-6 107 619 0 619 0
-51 34 c-177 120 -264 363 -235 655 22 222 96 459 227 731 l75 154 21 -34 c11
-19 46 -89 76 -155 158 -344 219 -594 210 -848 -6 -155 -34 -257 -96 -353 -37
-56 -108 -130 -162 -166 -24 -16 9 -17 594 -17 l619 -1 -6 -97 c-18 -305 -184
-606 -434 -785 -80 -57 -235 -141 -288 -154 l-30 -8 25 -6 c30 -7 55 -53 71
-131 8 -35 11 -156 10 -339 -2 -375 16 -724 75 -1390 204 -2337 507 -4022 995
-5532 l71 -217 43 19 c179 77 478 141 768 165 l78 7 48 72 c254 376 640 672
1103 846 l88 33 15 56 c129 462 452 897 886 1194 l57 39 -34 50 c-49 72 -46
105 20 248 173 371 381 997 457 1368 77 379 121 845 119 1259 0 33 47 81 91
94 21 7 39 15 39 18 0 3 -14 39 -30 80 -36 87 -83 246 -104 351 -55 276 -55
606 0 875 l15 69 -84 86 c-346 352 -554 798 -613 1316 l-16 139 -111 110
c-232 228 -404 483 -523 776 l-54 134 -148 75 c-373 189 -654 440 -888 791
l-65 97 -77 7 c-560 50 -1050 289 -1471 719 -57 58 -107 106 -110 106 -4 0
-70 -23 -146 -51 -77 -27 -231 -79 -343 -114 -173 -54 -209 -69 -250 -103
-111 -92 -208 -144 -320 -173 -173 -44 -372 -9 -555 98 -37 22 -105 47 -185
68 -195 52 -438 127 -647 200 -104 37 -199 68 -210 70 -15 3 -54 -31 -145
-124z"/>
<path d="M6462 20585 c-569 -148 -1020 -494 -1259 -966 -44 -88 -45 -93 -27
-103 10 -6 35 -27 55 -47 29 -30 41 -56 67 -145 46 -157 69 -255 89 -371 l17
-102 51 43 c187 160 462 323 717 426 65 26 124 53 132 59 27 22 165 314 205
433 70 206 116 449 129 682 l7 126 -25 0 c-14 -1 -85 -16 -158 -35z"/>
<path d="M17235 20528 c31 -435 123 -774 290 -1068 l53 -95 87 -29 c109 -37
338 -151 473 -236 57 -36 154 -104 215 -152 62 -48 115 -88 120 -88 4 0 7 11
7 24 0 71 101 481 135 546 14 27 53 64 90 86 17 9 14 19 -40 121 -31 60 -87
152 -124 204 -81 116 -277 315 -391 399 -223 164 -490 286 -775 356 -156 38
-148 42 -140 -68z"/>
<path d="M8564 20539 c-430 -31 -821 -182 -1124 -434 -101 -84 -271 -264 -303
-320 -3 -6 65 13 151 41 181 60 369 103 492 111 74 5 91 3 127 -15 50 -26 79
-62 93 -114 18 -63 -14 -390 -56 -592 -8 -38 -13 -70 -11 -72 8 -8 175 96 273
169 268 201 477 461 648 807 75 152 174 395 164 405 -5 5 -282 25 -318 23 -14
0 -75 -4 -136 -9z"/>
<path d="M15050 20544 c-180 -14 -190 -16 -190 -30 0 -31 114 -304 181 -432
164 -319 363 -563 619 -761 78 -60 266 -181 282 -181 3 0 -3 43 -13 95 -28
141 -48 308 -55 446 -6 141 2 168 70 223 30 25 48 31 99 34 110 7 383 -51 596
-127 l112 -40 -20 27 c-50 70 -172 201 -255 273 -279 245 -633 401 -1026 453
-121 16 -324 26 -400 20z"/>
<path d="M7640 19685 c-405 -83 -773 -263 -1036 -508 l-56 -52 16 -130 c9 -72
19 -210 23 -307 3 -98 7 -178 9 -178 1 0 35 14 75 31 116 50 240 89 278 89 50
-1 114 -32 140 -69 26 -36 47 -145 57 -289 4 -53 10 -103 14 -111 9 -17 144
142 224 264 197 297 322 657 370 1060 21 174 23 225 11 224 -5 0 -62 -11 -125
-24z"/>
<path d="M16105 19642 c42 -480 168 -881 378 -1200 66 -100 166 -230 210 -270
l25 -24 7 69 c16 171 35 294 49 322 24 46 77 81 134 88 56 6 96 -5 265 -73 59
-24 109 -44 111 -44 2 0 6 89 9 198 4 108 13 247 22 307 l15 110 -52 48 c-262
239 -621 420 -988 500 -63 14 -132 27 -153 30 l-37 6 5 -67z"/>
<path d="M4996 19240 c-348 -203 -673 -554 -821 -885 -60 -135 -115 -314 -139
-452 -5 -31 -5 -31 22 -17 60 31 154 11 203 -42 62 -67 220 -489 259 -692 l13
-62 122 122 c67 68 159 152 204 188 80 64 83 68 146 195 105 212 169 432 196
676 17 157 6 431 -26 615 -28 168 -84 386 -100 391 -6 2 -41 -15 -79 -37z"/>
<path d="M18762 19163 c-76 -289 -95 -452 -89 -733 8 -336 60 -556 199 -837
60 -121 62 -123 157 -202 53 -44 145 -129 204 -189 60 -61 110 -105 112 -99 1
7 15 62 30 122 46 184 144 450 213 578 33 62 90 97 156 97 26 0 56 -5 68 -11
11 -6 22 -8 25 -5 10 9 -27 176 -63 286 -137 416 -440 785 -864 1052 -51 32
-98 58 -105 58 -7 0 -25 -48 -43 -117z"/>
<path d="M6175 19062 c-252 -109 -489 -266 -672 -446 l-73 -70 0 -87 c0 -208
-43 -470 -111 -673 -22 -67 -43 -126 -45 -132 -3 -7 10 -14 32 -18 55 -11 123
-85 154 -168 13 -38 27 -68 30 -68 3 1 28 49 56 108 98 204 258 420 432 582
88 83 255 214 324 253 20 12 39 31 42 42 9 33 6 364 -4 465 -18 176 -32 260
-44 260 -6 0 -60 -22 -121 -48z"/>
<path d="M17567 19088 c-24 -97 -42 -384 -38 -619 l1 -95 98 -67 c218 -147
433 -361 572 -570 34 -51 90 -150 126 -220 62 -123 64 -127 74 -100 54 147 91
195 164 215 l43 11 -33 93 c-76 213 -113 408 -121 647 l-6 168 -86 81 c-172
161 -346 278 -586 394 -183 89 -200 94 -208 62z"/>
<path d="M6790 18352 c-387 -159 -717 -418 -929 -731 -96 -141 -195 -360 -239
-531 -19 -71 -18 -94 4 -158 3 -9 32 12 82 59 122 114 197 167 248 175 58 8
124 -16 160 -59 47 -56 254 -509 254 -556 0 -30 26 -13 90 61 312 359 480 839
480 1366 0 142 -16 370 -29 403 -5 16 -18 13 -121 -29z"/>
<path d="M16953 18312 c-15 -160 -9 -595 11 -707 70 -406 235 -759 477 -1019
l55 -59 43 117 c24 65 81 193 126 285 64 129 91 175 121 199 45 37 106 49 159
32 39 -13 142 -91 242 -184 l62 -57 11 43 c15 54 8 96 -40 239 -157 472 -509
855 -1005 1094 -60 29 -142 64 -182 78 l-71 26 -9 -87z"/>
<path d="M4050 17613 c-97 -72 -293 -265 -380 -374 -239 -299 -389 -670 -407
-1004 l-5 -100 194 -105 c106 -57 302 -160 435 -228 l242 -123 34 68 c85 170
152 384 183 583 22 144 22 410 -1 565 -32 220 -113 498 -208 715 l-23 52 -64
-49z"/>
<path d="M19733 17592 c-114 -255 -192 -561 -215 -834 -20 -249 14 -530 92
-759 35 -102 102 -260 126 -297 l15 -23 252 130 c139 71 333 173 432 228 l180
98 -2 93 c-2 52 -14 149 -28 216 -69 343 -243 665 -508 943 -84 88 -259 242
-298 264 -14 7 -22 -4 -46 -59z"/>
<path d="M5159 17328 c-183 -128 -386 -318 -512 -479 l-67 -87 0 -155 c0 -321
-61 -602 -196 -901 -29 -66 -53 -121 -51 -122 15 -13 634 -274 651 -274 2 0 6
82 9 183 11 396 128 742 370 1096 l64 94 -17 96 c-31 170 -109 440 -164 571
l-12 30 -75 -52z"/>
<path d="M18635 17362 c-64 -165 -139 -424 -170 -592 l-15 -86 86 -129 c233
-349 354 -733 354 -1127 0 -65 2 -118 6 -118 16 0 630 259 652 275 1 1 -20 49
-47 106 -93 196 -164 439 -191 658 -7 51 -13 167 -14 256 l-1 162 -76 94
c-138 170 -339 358 -503 468 -64 43 -75 48 -81 33z"/>
<path d="M5813 16783 c-254 -253 -417 -508 -518 -809 -68 -203 -104 -471 -88
-654 l8 -95 95 -33 c247 -86 788 -238 800 -225 13 14 67 156 94 243 113 375
110 758 -9 1169 -55 189 -201 528 -232 538 -6 2 -74 -58 -150 -134z"/>
<path d="M17847 16803 c-258 -543 -321 -1046 -191 -1533 28 -102 100 -296 114
-305 15 -9 394 97 702 196 l187 60 7 36 c13 71 -4 402 -26 506 -71 333 -225
633 -470 912 -81 93 -242 245 -259 245 -4 0 -33 -53 -64 -117z"/>
<path d="M12026 16410 c-3 -25 -42 -360 -87 -745 -412 -3606 -788 -6143 -997
-6734 l-30 -83 55 -72 c31 -39 61 -70 67 -69 6 1 62 25 125 53 304 138 626
210 936 210 242 0 433 -32 678 -114 l157 -53 54 66 c30 36 65 76 79 89 24 23
24 25 10 70 -202 658 -563 3196 -972 6822 -50 449 -70 593 -75 560z"/>
<path d="M3201 15818 c-70 -362 -115 -668 -145 -1003 -16 -174 -36 -471 -36
-537 l0 -38 253 0 c700 0 1382 97 2067 294 194 56 590 194 590 205 0 4 -80 28
-178 55 -769 214 -1465 502 -2318 962 -117 63 -214 114 -217 114 -3 0 -10 -24
-16 -52z"/>
<path d="M20520 15798 c-187 -105 -759 -393 -970 -488 -483 -217 -1049 -419
-1512 -540 -49 -13 -88 -26 -88 -30 0 -8 148 -64 350 -132 498 -167 1097 -290
1680 -343 198 -19 857 -33 870 -19 9 9 -2 253 -20 479 -20 234 -60 556 -100
790 -55 322 -62 355 -74 354 -6 -1 -67 -33 -136 -71z"/>
<path d="M6035 14509 c-649 -259 -1354 -423 -2125 -494 -91 -9 -328 -19 -527
-22 l-363 -6 0 -86 c0 -206 50 -955 65 -969 7 -7 272 -41 440 -57 94 -9 296
-18 450 -22 642 -13 1284 62 1933 227 212 54 463 127 474 138 3 4 -7 63 -23
132 -67 291 -119 677 -139 1026 -7 109 -13 199 -13 200 -1 0 -78 -30 -172 -67z"/>
<path d="M17666 14536 c-3 -22 -8 -104 -11 -181 -11 -275 -56 -618 -121 -926
-20 -96 -37 -183 -38 -194 -1 -16 20 -26 139 -63 712 -221 1526 -335 2270
-318 375 8 850 53 879 82 21 21 56 448 71 880 l6 171 -358 6 c-359 5 -573 20
-863 58 -661 86 -1305 253 -1867 484 l-102 42 -5 -41z"/>
<path d="M6415 12977 c-98 -138 -339 -386 -520 -538 -373 -312 -783 -572
-1300 -825 -363 -177 -714 -314 -1005 -390 -58 -15 -106 -28 -108 -29 -4 -3
82 -236 146 -396 75 -188 207 -487 320 -724 139 -294 144 -305 159 -305 19 0
214 85 378 165 819 401 1564 1045 2202 1905 151 205 141 168 84 298 -93 209
-280 725 -306 840 -3 17 -10 34 -13 36 -4 2 -21 -15 -37 -37z"/>
<path d="M17342 12767 c-77 -236 -211 -588 -260 -684 -12 -23 -22 -48 -22 -55
0 -19 269 -375 408 -541 642 -764 1328 -1294 2132 -1649 l175 -77 95 193 c167
337 402 882 498 1156 l30 86 -92 23 c-331 84 -818 279 -1196 478 -715 377
-1283 812 -1616 1240 -36 45 -66 83 -67 83 -1 -1 -39 -114 -85 -253z"/>
<path d="M5880 12814 c-30 -8 -151 -34 -268 -57 -116 -24 -214 -46 -217 -49
-11 -11 89 -258 105 -258 20 0 450 360 450 377 0 4 -6 3 -70 -13z"/>
<path d="M18005 12755 c90 -87 358 -305 373 -305 10 0 59 109 93 207 21 61 31
53 -106 78 -78 14 -362 75 -420 91 -11 2 16 -30 60 -71z"/>
<path d="M3107 12634 c-12 -72 -7 -326 8 -433 35 -238 115 -461 247 -684 22
-37 44 -70 49 -73 27 -17 590 165 730 237 55 27 58 76 14 195 -69 185 -109
380 -121 595 l-7 126 -166 7 c-250 11 -554 37 -710 62 -38 6 -38 6 -44 -32z"/>
<path d="M4990 12654 c-118 -16 -429 -41 -614 -50 l-139 -6 7 -116 c13 -220
55 -404 134 -593 l36 -87 167 84 c198 99 455 245 615 349 l114 74 -21 58 c-12
32 -48 113 -81 181 -68 140 -47 130 -218 106z"/>
<path d="M18679 12569 c-40 -80 -109 -242 -109 -256 0 -10 257 -171 432 -272
135 -77 437 -231 453 -231 7 0 30 39 50 88 73 173 116 372 130 593 l7 107
-134 6 c-221 11 -404 26 -581 46 -93 11 -175 20 -183 20 -8 0 -36 -45 -65
-101z"/>
<path d="M20630 12654 c-135 -18 -427 -42 -617 -50 -109 -5 -163 -10 -163 -18
0 -6 -5 -76 -10 -154 -12 -182 -47 -353 -105 -519 -37 -107 -44 -138 -39 -174
7 -52 -6 -44 259 -144 151 -56 393 -132 482 -150 31 -6 33 -4 78 72 198 335
290 712 261 1066 -9 100 7 92 -146 71z"/>
<path d="M6830 11612 c-36 -48 -114 -147 -175 -220 -60 -74 -118 -145 -128
-158 -17 -21 -17 -32 -7 -126 44 -408 200 -750 472 -1034 66 -69 85 -83 135
-98 80 -25 257 -98 343 -141 40 -20 73 -35 75 -33 2 2 -3 37 -11 78 -44 245
-41 629 6 705 30 48 81 77 140 79 28 0 50 4 50 8 0 17 -65 170 -107 250 -94
183 -209 334 -379 498 -95 92 -279 240 -332 269 -15 8 -28 -4 -82 -77z"/>
<path d="M16908 11648 c-343 -236 -609 -567 -744 -926 l-25 -64 26 6 c60 15
147 -31 181 -97 36 -68 35 -451 -1 -672 -8 -49 -12 -91 -10 -93 2 -3 15 2 27
10 40 26 269 124 358 153 97 31 121 51 238 190 229 273 369 609 400 966 l8 94
-119 145 c-65 80 -152 189 -192 242 l-73 97 -74 -51z"/>
<path d="M6065 10752 c-152 -149 -322 -297 -489 -425 -66 -51 -130 -101 -143
-112 l-24 -20 32 -100 c30 -95 35 -104 107 -180 88 -94 196 -231 260 -330 25
-38 46 -72 48 -74 1 -1 40 -7 86 -12 194 -21 436 -72 586 -123 39 -14 72 -24
72 -23 0 1 -7 40 -15 87 -9 47 -18 174 -22 282 -5 173 -4 203 11 243 19 48 62
91 102 101 13 3 24 8 24 11 0 3 -31 51 -69 108 -83 124 -165 285 -211 413 -31
87 -39 99 -123 188 -49 51 -92 94 -95 94 -4 0 -65 -58 -137 -128z"/>
<path d="M17579 10782 c-88 -92 -96 -103 -122 -183 -40 -119 -125 -286 -211
-414 l-73 -109 33 -12 c43 -15 58 -28 86 -73 22 -34 23 -45 22 -226 -1 -122
-7 -227 -18 -294 -9 -58 -16 -108 -16 -112 0 -3 47 8 105 27 142 45 304 80
460 100 72 9 140 18 152 20 15 3 42 33 79 90 73 111 158 217 250 314 75 79 86
99 129 242 l14 47 -113 84 c-154 116 -350 283 -532 454 l-152 143 -93 -98z"/>
<path d="M7715 10353 c-10 -116 9 -357 40 -511 44 -213 129 -436 235 -607 132
-216 357 -437 582 -572 51 -31 82 -42 130 -47 91 -10 266 -50 396 -89 106 -32
112 -33 99 -13 -126 192 -196 322 -261 486 -68 173 -126 386 -126 464 0 17 10
52 23 76 17 35 34 51 75 71 l53 26 -59 74 c-78 98 -247 261 -349 336 -202 150
-452 274 -726 362 -53 17 -99 31 -101 31 -2 0 -7 -39 -11 -87z"/>
<path d="M15985 10387 c-347 -121 -642 -296 -859 -511 -88 -87 -213 -233 -205
-240 2 -1 25 -13 51 -25 95 -45 112 -114 73 -281 -60 -250 -182 -537 -314
-738 -34 -51 -61 -94 -61 -97 0 -2 33 7 72 21 103 35 296 81 409 97 107 15
147 35 302 149 109 80 297 272 375 383 161 227 272 520 317 840 19 130 20 455
3 454 -7 0 -81 -24 -163 -52z"/>
<path d="M4970 9913 c-161 -98 -353 -198 -532 -279 -79 -35 -144 -70 -146 -79
-6 -25 67 -224 128 -353 133 -278 311 -498 564 -694 l90 -69 17 33 c45 88 80
97 369 97 129 0 265 -3 303 -8 37 -4 67 -4 67 0 0 3 -11 31 -24 60 -81 184
-154 485 -163 674 -6 139 -11 148 -144 315 -109 135 -368 383 -397 379 -4 0
-63 -35 -132 -76z"/>
<path d="M18690 9928 c-149 -123 -306 -294 -413 -452 -39 -58 -41 -64 -38
-127 6 -155 -73 -502 -165 -721 -13 -32 -24 -59 -24 -60 0 -2 143 -3 318 -3
l318 0 41 -27 c22 -14 48 -43 57 -63 12 -25 21 -33 29 -27 7 5 41 31 77 58
258 194 471 466 599 766 43 100 101 265 101 287 0 5 -44 27 -97 51 -163 71
-389 187 -559 286 -89 52 -163 94 -165 94 -2 0 -38 -28 -79 -62z"/>
<path d="M6770 9760 c0 -273 75 -603 194 -855 197 -417 552 -731 1026 -908 52
-20 124 -48 159 -62 35 -14 65 -24 67 -22 2 2 -7 31 -21 64 -34 86 -90 273
-110 372 -33 163 -6 250 88 286 l44 17 -100 96 c-205 199 -351 414 -452 667
-29 72 -38 84 -86 117 -74 51 -313 168 -434 213 -98 36 -335 105 -362 105 -10
0 -13 -22 -13 -90z"/>
<path d="M16948 9815 c-230 -67 -486 -178 -639 -275 -57 -38 -67 -49 -83 -94
-30 -85 -122 -263 -189 -365 -89 -135 -172 -235 -281 -338 l-94 -89 48 -22
c57 -26 90 -73 98 -137 7 -63 -31 -235 -93 -420 -29 -88 -52 -161 -51 -162 5
-6 327 125 426 173 253 122 484 312 652 534 85 114 207 346 252 480 65 196
101 395 112 610 l7 140 -24 0 c-13 -1 -76 -16 -141 -35z"/>
<path d="M9035 9389 c53 -244 188 -546 341 -760 80 -113 247 -285 361 -371
l93 -71 193 27 c230 31 529 66 575 66 31 0 32 2 25 28 -26 92 7 151 129 230
l89 59 -58 74 c-90 113 -167 192 -267 276 -352 296 -781 448 -1325 470 l-163
6 7 -34z"/>
<path d="M14535 9409 c-290 -26 -572 -103 -810 -221 -318 -159 -589 -414 -783
-738 -67 -113 -69 -118 -40 -124 12 -2 102 -9 198 -16 212 -13 509 -43 767
-76 105 -13 196 -24 201 -24 35 0 269 211 365 330 180 224 339 547 400 813
l15 67 -106 -1 c-59 -1 -152 -6 -207 -10z"/>
<path d="M5856 9244 c24 -193 100 -453 184 -630 47 -101 49 -103 91 -114 537
-140 922 -410 1264 -885 l21 -28 209 70 210 69 -3 33 c-4 59 -23 78 -122 127
-339 164 -605 393 -802 689 -70 105 -175 316 -214 430 -15 44 -32 85 -38 92
-18 19 -201 82 -340 118 -142 36 -280 61 -394 71 l-72 7 6 -49z"/>
<path d="M17846 9274 c-119 -19 -303 -60 -401 -91 -123 -39 -235 -83 -235 -94
0 -23 -77 -212 -125 -309 -191 -384 -486 -676 -885 -878 -127 -64 -150 -81
-150 -114 0 -10 6 -18 13 -18 6 0 106 -30 221 -67 208 -67 208 -67 225 -47 9
12 45 59 81 104 132 169 304 327 495 453 171 113 449 234 661 287 40 10 42 13
93 119 87 184 181 513 181 635 0 36 0 36 -42 35 -24 -1 -83 -7 -132 -15z"/>
<path d="M11876 8749 c-226 -31 -462 -102 -676 -205 -128 -62 -335 -178 -345
-194 -2 -4 4 -15 15 -25 18 -16 32 -16 187 -6 319 21 609 31 963 31 302 0 375
3 490 20 74 11 140 20 146 20 9 0 113 170 142 231 7 14 -242 87 -393 116 -96
18 -430 26 -529 12z"/>
<path d="M8290 8420 c0 -92 144 -510 175 -510 8 0 85 18 172 39 205 51 437
102 643 141 91 17 172 34 180 36 21 7 -102 74 -245 133 -244 101 -503 156
-827 175 -95 6 -98 6 -98 -14z"/>
<path d="M15410 8429 c-218 -16 -460 -64 -645 -129 -90 -32 -328 -140 -322
-146 2 -2 102 -22 223 -44 203 -38 666 -137 742 -159 37 -11 29 -22 79 109 42
110 103 326 103 368 0 13 -6 13 -180 1z"/>
<path d="M5300 8346 c0 -9 18 -71 41 -139 157 -469 467 -858 848 -1065 l73
-40 137 65 c209 99 580 257 784 332 l28 11 -32 46 c-164 239 -445 473 -724
605 -282 132 -542 188 -917 196 -216 5 -238 4 -238 -11z"/>
<path d="M18155 8353 c-247 -29 -414 -66 -582 -129 -328 -122 -610 -330 -832
-611 l-41 -51 72 -28 c287 -107 718 -289 869 -364 l56 -29 64 41 c154 97 347
275 462 425 119 156 249 404 316 607 23 68 41 129 41 135 0 8 -58 11 -197 10
-109 -1 -211 -4 -228 -6z"/>
<path d="M11505 8093 c-585 -27 -918 -56 -1390 -119 -1020 -135 -2037 -393
-2945 -747 -271 -106 -760 -323 -760 -338 0 -10 195 -150 400 -286 457 -305
1010 -602 1528 -822 200 -86 215 -90 240 -77 100 51 570 216 832 292 1906 555
4153 465 5927 -239 l162 -64 183 77 c498 209 952 448 1423 747 185 117 528
357 533 372 2 5 -5 11 -15 14 -10 3 -90 39 -179 81 -1362 637 -3065 1028
-4817 1106 -201 9 -958 11 -1122 3z m556 -723 c-3 -258 2 -306 40 -353 42 -54
139 -56 186 -4 38 41 44 85 50 345 l6 252 89 0 88 0 -1 -77 c0 -43 -4 -168 -8
-278 -7 -187 -9 -203 -33 -255 -15 -30 -33 -62 -40 -70 -56 -67 -170 -106
-279 -97 -114 10 -192 55 -233 136 -42 81 -48 152 -41 414 l8 238 86 -3 86 -3
-4 -245z m-357 209 c3 -17 6 -51 6 -74 l0 -42 -101 -6 c-55 -3 -102 -7 -104
-9 -1 -1 5 -138 15 -303 9 -165 15 -303 11 -307 -3 -3 -43 -8 -88 -10 l-82 -3
-5 55 c-3 30 -11 159 -16 285 -6 127 -13 241 -16 254 -5 24 -5 24 -103 17
l-98 -7 -7 38 c-3 21 -6 55 -6 76 0 31 3 37 23 38 12 0 112 6 222 13 110 7
232 14 271 15 l72 1 6 -31z m1306 -9 c135 -12 254 -23 266 -25 19 -4 21 -10
17 -57 -8 -102 1 -95 -109 -85 -53 5 -99 5 -104 0 -4 -4 -17 -125 -29 -268
-13 -143 -25 -277 -28 -299 l-6 -39 -86 7 c-47 4 -86 8 -87 9 -2 2 43 514 50
574 l5 41 -87 7 c-127 10 -121 5 -115 78 6 85 8 87 40 82 15 -3 138 -14 273
-25z m-2070 -22 c0 -7 16 -176 37 -376 23 -224 33 -366 27 -371 -5 -5 -44 -12
-86 -16 -75 -6 -77 -6 -82 17 -11 53 -76 731 -71 737 7 6 87 17 143 20 20 0
32 -4 32 -11z m-343 -98 c6 -48 6 -71 -2 -73 -6 -3 -52 -10 -103 -17 -92 -13
-93 -13 -88 -39 8 -38 86 -560 86 -575 0 -15 -159 -42 -170 -29 -4 4 -27 139
-50 298 -23 160 -45 293 -49 297 -3 3 -48 0 -100 -8 -52 -8 -96 -13 -98 -10
-6 5 -26 137 -21 141 5 6 510 83 549 84 l36 1 10 -70z m3138 30 c116 -18 211
-33 212 -34 3 -3 -15 -113 -22 -132 -2 -8 -47 -4 -148 11 l-145 22 -6 -50 c-4
-27 -9 -62 -12 -76 l-6 -27 129 -18 c70 -10 133 -20 139 -23 12 -5 -4 -143
-18 -143 -4 0 -65 9 -135 20 -69 11 -128 18 -131 15 -7 -7 -31 -159 -26 -164
2 -3 70 -15 150 -27 81 -13 148 -25 151 -27 5 -6 -14 -128 -22 -135 -6 -6
-473 62 -480 69 -2 3 71 485 114 758 1 2 11 1 24 -2 12 -3 117 -20 232 -37z
m-3915 -105 c3 -2 4 -34 2 -72 l-4 -70 -76 1 c-125 1 -193 -37 -178 -99 8 -33
45 -51 152 -70 154 -29 221 -77 244 -177 43 -177 -117 -318 -361 -318 -110 0
-109 -1 -109 85 l0 73 83 -5 c131 -8 217 28 217 92 0 47 -37 71 -141 89 -163
29 -234 78 -259 178 -35 139 87 273 270 297 55 7 143 5 160 -4z m5079 -134
c98 -37 174 -111 207 -202 20 -55 22 -177 5 -249 -31 -126 -110 -233 -208
-282 -42 -20 -63 -23 -158 -23 -98 0 -116 3 -167 27 -126 59 -199 173 -201
313 -3 206 114 384 281 432 60 17 175 9 241 -16z m-5670 -362 c61 -200 107
-367 103 -370 -4 -3 -44 -17 -90 -30 l-84 -23 -217 219 -218 220 43 -130 c58
-177 114 -363 114 -380 0 -17 -138 -61 -150 -48 -9 10 -224 723 -219 727 2 1
46 15 97 30 l93 27 58 -50 c32 -28 126 -120 209 -206 l151 -155 -24 65 c-14
35 -47 140 -75 232 -28 92 -53 173 -55 180 -3 8 25 21 73 36 42 13 78 23 79
22 2 -1 52 -165 112 -366z m6431 104 c107 -40 196 -75 197 -77 4 -4 -38 -118
-47 -128 -3 -4 -57 12 -120 36 -63 24 -124 46 -136 50 -19 6 -24 -2 -49 -69
-15 -42 -25 -78 -22 -81 3 -3 58 -25 123 -50 65 -25 120 -46 121 -48 3 -3 -11
-46 -36 -108 l-10 -27 -66 24 c-36 14 -93 36 -128 49 l-63 24 -54 -144 c-29
-79 -54 -144 -56 -144 -6 0 -164 62 -164 64 0 5 262 701 267 709 6 10 10 9
243 -80z m-7246 -369 c76 -195 137 -356 135 -358 -12 -12 -155 -63 -161 -58
-7 7 -278 691 -278 703 0 7 137 67 155 68 6 0 72 -159 149 -355z"/>
<path d="M14705 7105 c-72 -36 -130 -140 -141 -254 -16 -150 85 -258 207 -222
132 40 215 293 139 419 -40 66 -135 92 -205 57z"/>
<path d="M5905 6809 c-1292 -82 -2804 -322 -4155 -660 -361 -90 -822 -221
-813 -230 5 -3 242 -88 528 -188 286 -100 523 -185 527 -189 3 -4 -76 -243
-178 -531 -101 -289 -182 -526 -181 -527 2 -2 58 15 126 37 1021 326 2638 640
3861 749 428 38 507 42 987 47 831 9 1526 -37 2303 -152 91 -14 170 -25 175
-25 21 1 -587 304 -705 352 -757 305 -1516 736 -2199 1250 -61 45 -113 77
-125 77 -12 -1 -79 -6 -151 -10z m245 -401 c1 -13 18 -174 39 -358 21 -184 37
-337 34 -339 -2 -3 -43 -7 -91 -9 l-87 -4 -116 163 c-64 90 -141 201 -170 246
-29 45 -54 81 -56 79 -2 -2 1 -32 6 -67 12 -73 51 -396 51 -420 0 -13 -16 -17
-77 -23 -42 -3 -78 -5 -79 -3 -4 4 -85 719 -82 723 2 1 48 5 103 9 l100 6 118
-168 c66 -92 139 -199 163 -238 46 -74 49 -75 34 -9 -12 52 -50 357 -50 401
l0 33 80 0 c76 0 80 -1 80 -22z m-871 -397 c99 -187 181 -342 181 -344 0 -5
-180 -30 -184 -25 -2 1 -23 40 -47 85 -50 94 -43 91 -179 70 l-75 -12 -8 -90
c-4 -49 -11 -93 -15 -96 -7 -7 -164 -28 -170 -24 -3 3 70 624 84 716 l5 37 77
9 c42 6 93 11 113 12 l36 1 182 -339z m-718 -106 c42 -192 75 -353 73 -356 -4
-7 -164 -33 -168 -27 -5 6 -157 711 -154 713 7 7 116 23 142 22 l30 -2 77
-350z m-585 230 c123 -36 209 -134 240 -272 49 -223 -52 -375 -296 -442 -69
-19 -267 -48 -273 -40 -6 7 -157 673 -157 690 0 17 57 36 170 58 30 6 64 13
75 15 51 10 196 5 241 -9z m-626 -382 c40 -164 78 -323 86 -353 8 -35 10 -56
3 -60 -5 -4 -45 -12 -89 -19 l-79 -13 -59 63 c-160 173 -220 241 -280 314 -42
51 -63 71 -58 55 32 -120 116 -462 116 -473 0 -10 -24 -18 -75 -27 -42 -7 -77
-11 -78 -9 -10 14 -168 692 -164 703 4 11 138 41 182 41 14 0 273 -281 333
-360 64 -85 64 -85 43 -23 -22 63 -114 429 -109 433 6 6 94 23 125 24 l31 1
72 -297z m-799 -208 c48 -192 85 -352 83 -355 -3 -3 -41 -12 -85 -21 l-79 -16
-10 36 c-38 147 -168 676 -166 678 6 6 133 31 150 30 17 -2 31 -46 107 -352z"/>
<path d="M4996 6116 c-4 -44 -9 -107 -13 -139 l-6 -59 69 7 c38 4 72 10 75 14
4 3 -21 63 -56 132 l-63 127 -6 -82z"/>
<path d="M3744 6010 c-66 -15 -66 2 -9 -245 29 -124 55 -228 57 -231 8 -8 111
17 148 36 69 35 100 92 100 184 0 186 -128 297 -296 256z"/>
<path d="M17844 6727 c-600 -457 -1337 -882 -2049 -1181 -231 -98 -919 -427
-860 -412 34 8 360 54 575 81 598 73 1135 105 1775 105 529 0 855 -18 1403
-76 1189 -126 2682 -427 3632 -733 52 -17 95 -29 96 -28 0 1 -80 232 -179 512
-99 281 -181 519 -184 530 -4 18 45 37 524 204 290 101 531 187 535 190 10 8
-389 121 -742 211 -1045 265 -2232 481 -3265 594 -391 43 -552 57 -1070 90
l-70 5 -121 -92z m146 -368 c57 -12 58 -16 31 -94 -20 -55 -19 -55 -111 -36
-95 20 -180 -10 -180 -64 0 -32 35 -57 127 -90 142 -50 193 -103 193 -201 0
-143 -134 -236 -341 -236 -82 0 -199 23 -199 40 0 11 41 132 45 132 1 0 22 -7
46 -16 62 -23 185 -24 226 -1 65 35 50 102 -29 131 -24 9 -70 25 -102 37 -77
28 -141 90 -151 146 -18 110 71 221 202 252 54 13 183 13 243 0z m737 -9 c77
-17 78 -19 50 -86 -26 -65 -22 -64 -124 -44 -124 24 -240 -25 -286 -122 -69
-142 -29 -272 95 -314 40 -13 72 -15 143 -11 l93 5 6 -45 c11 -81 11 -80 -51
-94 -35 -7 -97 -9 -154 -6 -194 10 -307 88 -345 239 -14 53 -15 75 -5 138 26
169 133 289 301 336 56 15 213 17 277 4z m375 -39 c3 -3 -23 -161 -58 -351
-35 -190 -64 -347 -64 -349 0 -4 -172 7 -176 12 -1 1 24 146 56 322 33 176 62
335 65 353 l6 32 82 -6 c45 -4 85 -9 89 -13z m427 -46 c112 -14 205 -26 206
-27 1 -2 -4 -31 -12 -65 -17 -74 -9 -72 -183 -48 -58 8 -110 15 -116 15 -11 0
-40 -127 -31 -136 3 -3 63 -13 134 -21 70 -9 129 -17 131 -18 5 -5 -20 -125
-27 -129 -3 -2 -53 2 -111 10 -175 22 -164 25 -180 -53 -7 -38 -15 -73 -17
-79 -2 -6 53 -17 152 -28 85 -11 155 -22 155 -27 0 -19 -23 -115 -29 -121 -6
-7 -469 47 -479 56 -4 5 136 682 145 698 2 4 16 5 31 2 15 -2 119 -16 231 -29z
m467 -56 l80 -12 55 -156 c62 -179 98 -298 99 -323 0 -40 18 -14 23 35 9 71
78 390 88 401 7 8 145 -7 155 -16 2 -2 -32 -159 -74 -349 l-78 -344 -73 3
c-116 5 -108 -4 -179 203 -34 101 -73 222 -86 269 -22 81 -24 83 -30 50 -4
-19 -28 -133 -54 -253 l-47 -218 -65 7 c-36 4 -72 9 -81 13 -14 5 -6 49 62
351 43 190 79 346 79 348 0 5 49 2 126 -9z m1032 -149 c59 -10 151 -40 181
-59 14 -9 10 -20 -35 -93 l-24 -37 -52 24 c-197 91 -388 -23 -388 -232 0 -61
9 -84 53 -130 40 -42 114 -66 205 -67 l74 -1 -6 -35 c-3 -19 -6 -50 -6 -69 l0
-34 -107 6 c-182 8 -301 63 -367 170 -81 131 -20 376 118 475 109 78 218 104
354 82z m580 -149 c112 -32 205 -61 208 -64 5 -5 -33 -107 -45 -120 -4 -4 -68
10 -142 32 l-134 39 -21 -46 c-42 -94 -50 -84 96 -127 79 -23 129 -42 127 -49
-2 -6 -12 -35 -22 -63 -11 -29 -23 -53 -27 -53 -5 0 -65 16 -134 36 -69 20
-127 34 -128 32 -14 -18 -55 -143 -49 -149 4 -4 67 -24 138 -44 72 -21 133
-40 138 -44 4 -4 -4 -34 -17 -67 -19 -45 -29 -58 -43 -56 -26 5 -437 124 -442
128 -2 2 56 157 129 344 107 274 136 339 149 335 9 -2 107 -31 219 -64z"/>
<path d="M1436 2598 c-21 -29 -23 -299 -3 -338 17 -33 51 -37 71 -8 13 18 16
52 16 176 0 87 -5 162 -10 173 -14 26 -55 24 -74 -3z"/>
<path d="M7381 2427 c101 -42 169 -114 169 -180 0 -48 -50 -126 -107 -167 -86
-61 -139 -78 -342 -107 l-33 -4 6 -50 c31 -233 239 -373 426 -287 73 33 115
70 150 132 l30 51 0 318 0 317 -177 0 -178 0 56 -23z"/>
<path d="M1414 1830 c-35 -14 -64 -59 -64 -99 0 -46 32 -99 65 -107 71 -18
105 29 105 146 l0 70 -42 -1 c-24 0 -53 -4 -64 -9z"/>
<path d="M19463 2519 c-45 -9 -82 -35 -88 -62 -3 -12 -4 -85 -3 -161 3 -136 4
-139 29 -158 57 -43 138 -41 186 4 22 21 23 27 23 173 0 147 -1 152 -24 174
-29 27 -79 40 -123 30z"/>
<path d="M21716 2148 c-29 -45 -41 -130 -41 -308 0 -195 13 -275 51 -318 l24
-27 24 27 c34 37 46 124 46 320 0 225 -19 319 -67 326 -14 2 -27 -5 -37 -20z"/>
<path d="M10100 2137 c-58 -34 -110 -106 -130 -177 -53 -189 93 -393 270 -377
56 5 133 38 178 76 21 19 22 24 22 220 l0 200 -33 25 c-59 45 -117 66 -187 66
-57 0 -74 -5 -120 -33z"/>
<path d="M13906 2143 c-28 -55 -40 -148 -40 -308 0 -158 10 -238 40 -296 30
-60 73 -34 92 54 31 138 23 445 -14 536 -20 51 -55 57 -78 14z"/>
</g>
</svg>
