<?xml version="1.0" standalone="no"?>
<!DOCTYPE svg PUBLIC "-//W3C//DTD SVG 20010904//EN"
 "http://www.w3.org/TR/2001/REC-SVG-20010904/DTD/svg10.dtd">
<svg version="1.0" xmlns="http://www.w3.org/2000/svg"
 width="576.000000pt" height="576.000000pt" viewBox="0 0 576.000000 576.000000"
 preserveAspectRatio="xMidYMid meet">
<metadata>
Created by potrace 1.16, written by Peter Selinger 2001-2019
</metadata>
<g transform="translate(0.000000,576.000000) scale(0.100000,-0.100000)"
fill="#000000" stroke="none">
<path d="M0 2880 l0 -2880 2880 0 2880 0 0 2880 0 2880 -2880 0 -2880 0 0
-2880z m2955 1405 c104 -11 215 -93 246 -181 21 -61 18 -180 -7 -235 -29 -63
-78 -116 -138 -147 -46 -25 -61 -27 -161 -27 -133 0 -193 18 -260 77 -65 58
-88 106 -93 204 -4 72 -1 89 20 136 46 101 117 157 219 177 42 8 71 7 174 -4z
m-760 -295 c60 -31 108 -97 124 -170 14 -67 15 -1173 1 -1290 -15 -125 -46
-234 -92 -330 -33 -68 -57 -102 -123 -168 -70 -69 -97 -89 -176 -126 -52 -24
-123 -51 -159 -60 -112 -27 -278 -38 -413 -26 -248 21 -385 70 -490 175 -162
162 -127 453 68 556 l45 24 47 -47 c122 -119 287 -170 442 -137 86 18 144 72
173 158 8 26 13 214 17 656 l6 620 28 58 c16 31 44 69 63 83 60 47 97 54 249
51 128 -2 145 -4 190 -27z m2262 -465 c284 -46 500 -199 621 -440 147 -294
109 -712 -86 -954 -150 -186 -351 -285 -628 -312 -287 -27 -561 56 -740 224
-172 161 -255 367 -255 637 0 192 38 334 126 476 52 82 176 204 259 253 187
111 458 156 703 116z m-1390 -33 c51 -27 89 -75 111 -139 14 -41 16 -127 20
-599 4 -616 -1 -705 -45 -786 -54 -101 -183 -145 -353 -120 -118 17 -172 53
-214 142 -21 44 -21 59 -24 674 -3 697 -3 700 61 773 17 20 54 47 82 60 46 22
60 24 185 21 116 -3 141 -7 177 -26z"/>
<path d="M4165 3047 c-109 -37 -186 -104 -233 -205 -23 -50 -27 -70 -27 -162
0 -99 2 -109 33 -172 63 -129 177 -200 322 -199 119 0 215 46 284 137 53 69
71 133 71 244 -1 81 -5 104 -27 152 -59 128 -176 208 -313 215 -41 1 -87 -3
-110 -10z"/>
</g>
</svg>
